<svg width="28" height="28" viewBox="0 0 28 28" fill="none" xmlns="http://www.w3.org/2000/svg">
<path d="M13.649 3.27284C13.8724 3.17525 14.1263 3.17525 14.3497 3.27284C18.6883 5.16846 22.8002 7.48576 26.6337 10.1728C26.9111 10.3673 27.0514 10.7044 26.9937 11.0382C26.9361 11.3721 26.6909 11.6426 26.3643 11.7328C25.5652 11.9534 24.7731 12.1909 23.9881 12.4441C20.8018 13.4717 17.7347 14.7646 14.8126 16.2969L14.8088 16.2989C14.6763 16.3684 14.5441 16.4384 14.4122 16.5088C14.1546 16.6465 13.8452 16.6465 13.5875 16.5088C13.4544 16.4377 13.3209 16.3671 13.1872 16.2969C11.7423 15.5392 10.2619 14.8401 8.74927 14.2026V13.9416C8.74927 13.7884 8.82792 13.6524 8.94962 13.5787C10.7056 12.5148 12.5169 11.5333 14.3781 10.6393C14.8137 10.43 14.9972 9.90728 14.788 9.47167C14.5788 9.03607 14.056 8.85256 13.6204 9.06179C11.708 9.9804 9.84693 10.9889 8.04285 12.0819C7.5139 12.4024 7.15831 12.9268 7.04135 13.5144C6.04394 13.1307 5.03342 12.7734 4.01061 12.4435C3.22564 12.1904 2.43345 11.9533 1.6344 11.7328C1.30783 11.6426 1.06264 11.3721 1.00498 11.0382C0.947323 10.7044 1.08756 10.3673 1.36498 10.1728C5.19846 7.48575 9.3104 5.16846 13.649 3.27284Z" fill="#A685FA"/>
<path d="M15.2369 18.0523C18.0823 16.532 21.0717 15.2468 24.1794 14.2224C24.336 15.873 24.436 17.54 24.4774 19.2214C24.4863 19.5822 24.2728 19.9114 23.9398 20.0504C20.6135 21.4392 17.4495 23.1397 14.4845 25.1156C14.1907 25.3115 13.8079 25.3115 13.5141 25.1156C10.5491 23.1397 7.38512 21.4392 4.0588 20.0504C3.72579 19.9114 3.51229 19.5822 3.52118 19.2214C3.5626 17.5399 3.66261 15.8727 3.81925 14.222C4.89375 14.5762 5.95411 14.9615 6.99927 15.377V16.8591C6.47619 17.1617 6.12427 17.7273 6.12427 18.375C6.12427 18.9529 6.40436 19.4653 6.83619 19.784C6.73176 20.2281 6.5772 20.6626 6.3725 21.0787C6.90064 21.328 7.42427 21.5853 7.94322 21.8504C8.23877 21.2493 8.45307 20.6184 8.5861 19.9742C9.19784 19.7014 9.62427 19.088 9.62427 18.375C9.62427 17.7273 9.27234 17.1617 8.74927 16.8591V16.1069C10.1159 16.704 11.4546 17.3533 12.7628 18.0523C13.5358 18.4654 14.4639 18.4654 15.2369 18.0523Z" fill="#A685FA"/>
<path d="M5.20519 22.706C5.69418 22.217 6.08346 21.6663 6.3725 21.0787C6.90064 21.328 7.42427 21.5853 7.94322 21.8504C7.57157 22.6063 7.07118 23.3149 6.44263 23.9434C6.10092 24.2852 5.5469 24.2852 5.20519 23.9434C4.86349 23.6017 4.86349 23.0477 5.20519 22.706Z" fill="#A685FA"/>
</svg>
