<svg width="16" height="15" viewBox="0 0 16 15" fill="none" xmlns="http://www.w3.org/2000/svg">
<path d="M6.95939 0.459615C7.35297 -0.153148 8.24859 -0.153147 8.64217 0.459616L10.6585 3.59876C10.7939 3.80959 11.0035 3.9619 11.2459 4.02554L14.8544 4.97309C15.5588 5.15806 15.8356 6.00984 15.3745 6.57351L13.012 9.46116C12.8533 9.65511 12.7733 9.90155 12.7876 10.1517L13.0016 13.8765C13.0433 14.6036 12.3188 15.13 11.6402 14.8656L8.16383 13.5111C7.93034 13.4201 7.67122 13.4201 7.43774 13.5111L3.96139 14.8656C3.2828 15.13 2.55823 14.6036 2.59999 13.8765L2.81392 10.1517C2.82829 9.90155 2.74822 9.6551 2.58955 9.46116L0.227112 6.57351C-0.234037 6.00984 0.0427259 5.15806 0.747121 4.97309L4.35569 4.02554C4.59805 3.9619 4.80769 3.80959 4.94311 3.59876L6.95939 0.459615Z" fill="#FFE600"/>
</svg>
